<svg width="29" height="25" viewBox="0 0 29 25" fill="none" xmlns="http://www.w3.org/2000/svg">
<path d="M8.64453 11.4434C9.67013 13.0467 11.0414 14.409 12.6631 15.4248L5.77344 22.3154C5.34838 22.7405 5.13512 22.953 4.87402 23.0928C4.61308 23.2323 4.31842 23.2914 3.72949 23.4092L0.652344 24.0244C0.319733 24.0909 0.153202 24.1239 0.0585938 24.0293C-0.0356966 23.9347 -0.00293412 23.7686 0.0634766 23.4365L0.679688 20.3594C0.797578 19.7699 0.856359 19.475 0.996094 19.2139C1.13583 18.9528 1.34845 18.7404 1.77344 18.3154L8.64453 11.4434ZM13.0283 7.20801C13.5879 6.93074 14.2451 6.93076 14.8047 7.20801C15.0988 7.35374 15.3717 7.62663 15.917 8.17188C16.462 8.7169 16.7351 8.98919 16.8809 9.2832C17.1581 9.84268 17.158 10.5001 16.8809 11.0596C16.7351 11.3537 16.4622 11.6266 15.917 12.1719L14.1201 13.9678C12.4475 13.0164 11.0624 11.64 10.0986 9.98926L11.917 8.17188C12.462 7.62684 12.7344 7.35379 13.0283 7.20801Z" fill="#FF5F57"/>
</svg>
